HIERARCHY
ROOT Hips
{
	OFFSET 0.00 0.00 0.00
	CHANNELS 6 Xposition Yposition Zposition Xrotation Yrotation Zrotation
	JOINT LeftUpLeg
	{
		OFFSET 2.83210 0.00000 0.00000
		CHANNELS 3 Xrotation Yrotation Zrotation
		JOINT LeftLeg
		{
			OFFSET 0.00000 -16.27150 0.00000
			CHANNELS 3 Xrotation Yrotation Zrotation
			JOINT LeftFoot
			{
				OFFSET 0.00000 -14.95190 0.00000
				CHANNELS 3 Xrotation Yrotation Zrotation
				JOINT LeftToeBase
				{
					OFFSET 0.00000 -1.07991 4.03030
					CHANNELS 3 Xrotation Yrotation Zrotation
					End Site
					{
						OFFSET 0.00000 0.00000 2.95275
					}
				}
			}
		}
	}
	JOINT RightUpLeg
	{
		OFFSET -2.83210 0.00000 0.00000
		CHANNELS 3 Xrotation Yrotation Zrotation
		JOINT RightLeg
		{
			OFFSET 0.00000 -16.27150 0.00000
			CHANNELS 3 Xrotation Yrotation Zrotation
			JOINT RightFoot
			{
				OFFSET 0.00000 -14.95190 0.00000
				CHANNELS 3 Xrotation Yrotation Zrotation
				JOINT RightToeBase
				{
					OFFSET 0.00000 -1.07991 4.03030
					CHANNELS 3 Xrotation Yrotation Zrotation
					End Site
					{
						OFFSET 0.00000 0.00000 2.95275
					}
				}
			}
		}
	}
	JOINT Spine
	{
		OFFSET 0.00000 0.03937 0.00000
		CHANNELS 3 Xrotation Yrotation Zrotation
		JOINT Spine1
		{
			OFFSET 0.00000 8.01054 0.00000
			CHANNELS 3 Xrotation Yrotation Zrotation
			JOINT Neck
			{
				OFFSET 0.00000 8.21888 0.00000
				CHANNELS 3 Xrotation Yrotation Zrotation
				JOINT Head
				{
					OFFSET 0.00000 3.25664 0.00000
					CHANNELS 3 Xrotation Yrotation Zrotation
					End Site
					{
						OFFSET 0.00000 4.52755 0.00000
					}
				}
			}
			JOINT LeftShoulder
			{
				OFFSET 0.00000 8.21888 0.00000
				CHANNELS 3 Xrotation Yrotation Zrotation
				JOINT LeftArm
				{
					OFFSET 6.52904 -0.00002 0.00000
					CHANNELS 3 Xrotation Yrotation Zrotation
					JOINT LeftForeArm
					{
						OFFSET 10.44840 -0.00004 0.00000
						CHANNELS 3 Xrotation Yrotation Zrotation
						JOINT LeftHand
						{
							OFFSET 8.94727 -0.00003 0.00000
							CHANNELS 3 Xrotation Yrotation Zrotation
							JOINT LeftHandThumb
							{
								OFFSET 0.00000 0.00000 0.00000
								CHANNELS 3 Xrotation Yrotation Zrotation
								End Site
								{
									OFFSET 0.00000 0.00000 3.93700
								}
							}
							JOINT L_Wrist_End
							{
								OFFSET 3.93700 -0.00001 0.00000
								CHANNELS 3 Xrotation Yrotation Zrotation
							}
						}
					}
				}
			}
			JOINT RightShoulder
			{
				OFFSET 0.00000 8.21888 0.00000
				CHANNELS 3 Xrotation Yrotation Zrotation
				JOINT RightArm
				{
					OFFSET -6.52904 -0.00002 0.00000
					CHANNELS 3 Xrotation Yrotation Zrotation
					JOINT RightForeArm
					{
						OFFSET -10.44840 -0.00004 0.00000
						CHANNELS 3 Xrotation Yrotation Zrotation
						JOINT RightHand
						{
							OFFSET -8.94727 -0.00003 0.00000
							CHANNELS 3 Xrotation Yrotation Zrotation
							JOINT RightHandThumb
							{
								OFFSET 0.00000 0.00000 0.00000
								CHANNELS 3 Xrotation Yrotation Zrotation
								End Site
								{
									OFFSET 0.00000 0.00000 3.93700
								}
							}
							JOINT R_Wrist_End
							{
								OFFSET -5.39369 -0.00002 0.00000
								CHANNELS 3 Xrotation Yrotation Zrotation
							}
						}
					}
				}
			}
		}
	}
}
MOTION
Frames: 12
Frame Time: 0.008333
 -11.0249 32.6492 -13.6845 16.8869 41.5239 -10.6765 11.4751 21.3242 -3.5450 15.4651 -0.0000 0.0000 24.1331 12.7288 -8.2254 -19.4715 0.0000 0.0000 -16.4383 -8.0174 9.4190 11.9346 -0.0000 -0.0000 -14.2790 -31.9604 15.0253 22.9819 -0.0000 0.0000 -8.3446 -2.2809 -9.0903 2.3781 -11.3948 10.1417 -23.1651 18.0525 4.1525 -42.5107 -51.7129 -41.7002 -3.8913 13.1822 19.3076 -114.3181 -3.4682 -52.9875 -0.0001 -14.2916 -0.0000 -64.1045 -18.2700 -21.6772 0.0000 0.0000 0.0000 0.0000 0.0000 0.0000 8.7786 -28.6930 -2.7409 -90.9189 -24.3184 16.6005 -0.0001 13.8961 0.0000 -54.4301 10.3664 -2.7239 0.0000 -0.0000 0.0000 0.0000 -0.0000 0.0000
 -10.9813 32.6356 -13.6181 17.0035 41.5238 -10.7885 11.4683 21.3928 -3.5066 15.4503 -0.0000 0.0000 24.3728 12.8700 -8.0068 -19.9316 0.0000 -0.0000 -16.5960 -8.3244 9.4180 12.4815 -0.0000 -0.0000 -14.5908 -31.7305 15.0225 22.8728 -0.0000 -0.0000 -8.3171 -2.2745 -9.0896 2.3669 -11.3824 10.1965 -23.2072 18.0770 4.1731 -42.6245 -51.7017 -41.7594 -3.9214 13.1965 19.3526 -114.3673 -3.4101 -52.9465 -0.0001 -14.2793 -0.0000 -64.0772 -18.2186 -21.7053 -0.0000 0.0000 0.0000 -0.0000 0.0000 0.0000 8.7552 -28.6951 -2.7676 -90.9533 -24.2797 16.5221 -0.0001 13.8189 0.0000 -54.3333 10.3495 -2.7441 -0.0000 0.0000 -0.0000 -0.0000 0.0000 -0.0000
 -10.9348 32.6225 -13.5502 17.1247 41.5285 -10.8984 11.4649 21.5065 -3.4761 15.4276 -0.0000 0.0000 24.6224 13.0210 -7.7146 -20.3900 -0.0000 0.0000 -16.7392 -8.6042 9.4016 13.0155 -0.0000 -0.0000 -14.8570 -31.4992 15.2328 22.8037 -0.0000 0.0000 -8.2910 -2.2706 -9.0896 2.3494 -11.3729 10.2474 -23.2331 18.1145 4.1976 -42.7668 -51.6953 -41.8327 -3.9671 13.2052 19.4008 -114.3839 -3.3831 -52.9000 -0.0001 -14.2579 -0.0000 -64.0305 -18.2029 -21.7570 -0.0000 0.0000 0.0000 -0.0000 0.0000 0.0000 8.7331 -28.7001 -2.7964 -90.9879 -24.2378 16.4413 -0.0001 13.7531 0.0000 -54.3122 10.3175 -2.7470 0.0000 -0.0000 0.0000 0.0000 -0.0000 0.0000
 -10.8849 32.6107 -13.4803 17.2476 41.5419 -11.0046 11.4693 21.6648 -3.4586 15.3986 -0.0000 -0.0000 24.8766 13.2051 -7.3007 -20.8898 -0.0000 0.0000 -16.8708 -8.8997 9.3705 13.5500 0.0000 0.0000 -15.1252 -31.2598 15.4543 22.7394 -0.0000 0.0000 -8.2682 -2.2682 -9.0894 2.3303 -11.3658 10.2948 -23.2461 18.1452 4.2134 -42.9080 -51.6905 -41.9039 -3.9931 13.2157 19.4467 -114.3903 -3.3735 -52.8477 -0.0001 -14.2658 -0.0000 -63.9607 -18.1943 -21.7523 0.0000 0.0000 -0.0000 0.0000 0.0000 -0.0000 8.7202 -28.7109 -2.8237 -91.0752 -24.2066 16.3438 -0.0001 13.7029 0.0000 -54.2965 10.2944 -2.7773 0.0000 -0.0000 0.0000 0.0000 -0.0000 0.0000
 -10.8314 32.6012 -13.4069 17.3707 41.5626 -11.1078 11.4891 21.8489 -3.4531 15.3536 -0.0000 0.0000 25.1782 13.4374 -6.8785 -21.3949 -0.0000 0.0000 -17.0000 -9.1971 9.3244 14.1017 0.0000 -0.0000 -15.3545 -31.0257 15.7429 22.6675 0.0000 -0.0000 -8.2503 -2.2699 -9.0902 2.3057 -11.3640 10.3391 -23.2532 18.1741 4.2341 -43.0445 -51.6874 -41.9809 -4.0168 13.2214 19.4883 -114.3921 -3.3723 -52.7916 -0.0001 -14.2782 -0.0000 -63.9738 -18.2019 -21.7743 0.0000 -0.0000 -0.0000 0.0000 -0.0000 -0.0000 8.6877 -28.7285 -2.8565 -91.1983 -24.1733 16.2401 -0.0001 13.6531 0.0000 -54.3071 10.2961 -2.8077 -0.0000 0.0000 0.0000 -0.0000 0.0000 0.0000
 -10.7731 32.5939 -13.3309 17.4923 41.5942 -11.2094 11.5201 22.0590 -3.4596 15.2930 -0.0000 0.0000 25.5386 13.7332 -6.4321 -21.8958 0.0000 0.0000 -17.1354 -9.4946 9.2621 14.6791 -0.0000 0.0000 -15.5395 -30.7820 16.0933 22.6062 0.0000 -0.0000 -8.2371 -2.2735 -9.0872 2.2808 -11.3652 10.3851 -23.2586 18.1960 4.2578 -43.1744 -51.6709 -42.0705 -4.0129 13.2271 19.5205 -114.4085 -3.3629 -52.7270 -0.0001 -14.3071 -0.0000 -64.0019 -18.1761 -21.8202 -0.0000 -0.0000 -0.0000 -0.0000 -0.0000 -0.0000 8.6591 -28.7535 -2.8914 -91.3631 -24.1334 16.1206 -0.0001 13.5952 0.0000 -54.2991 10.3006 -2.8159 0.0000 0.0000 -0.0000 0.0000 0.0000 -0.0000
 -10.7112 32.5896 -13.2526 17.6159 41.6392 -11.3131 11.5543 22.2963 -3.4761 15.2147 -0.0000 0.0000 25.9754 14.1524 -5.4811 -22.8963 0.0000 0.0000 -17.2742 -9.8077 9.1880 15.2678 -0.0000 0.0000 -15.6776 -30.5185 16.4405 22.5713 0.0000 0.0000 -8.2247 -2.2805 -9.0825 2.2583 -11.3700 10.4334 -23.2752 18.2117 4.2870 -43.2973 -51.6409 -42.1707 -4.0189 13.2239 19.5516 -114.4199 -3.3581 -52.6584 -0.0001 -14.3338 -0.0000 -64.0094 -18.1361 -21.8470 -0.0000 -0.0000 -0.0000 -0.0000 -0.0000 -0.0000 8.6168 -28.7827 -2.9305 -91.5384 -24.0829 15.9857 -0.0001 13.5311 0.0000 -54.1785 10.2956 -2.8688 -0.0000 0.0000 0.0000 -0.0000 0.0000 0.0000
 -10.6446 32.5886 -13.1720 17.7428 41.6948 -11.4158 11.5834 22.5640 -3.4853 15.1313 -0.0000 -0.0000 26.5150 14.4812 -4.9627 -23.6259 0.0000 0.0000 -17.4043 -10.1243 9.0974 15.8548 -0.0000 0.0000 -15.7548 -30.2286 16.8091 22.4614 0.0000 -0.0000 -8.2187 -2.2895 -9.0754 2.2352 -11.3781 10.4849 -23.3026 18.2142 4.3191 -43.4048 -51.5904 -42.2825 -4.0187 13.2193 19.5706 -114.4440 -3.3445 -52.5881 -0.0001 -14.3618 -0.0000 -63.9898 -18.0411 -21.8771 0.0000 0.0000 -0.0000 0.0000 0.0000 -0.0000 8.5853 -28.8174 -2.9703 -91.7092 -24.0204 15.8481 -0.0001 13.4715 0.0000 -54.1344 10.2546 -2.8496 -0.0000 -0.0000 0.0000 -0.0000 -0.0000 0.0000
 -10.5738 32.5918 -13.0882 17.8734 41.7566 -11.5200 11.6184 22.7936 -3.4952 15.0081 -0.0000 0.0000 27.1486 14.7851 -4.9608 -23.9177 0.0000 -0.0000 -17.5163 -10.4273 8.9965 16.4196 -0.0000 0.0000 -15.7742 -29.9220 17.1655 22.3482 -0.0000 -0.0000 -8.2185 -2.3002 -9.0691 2.2070 -11.3890 10.5382 -23.3290 18.1948 4.3506 -43.5069 -51.5477 -42.4037 -4.0237 13.2120 19.5876 -114.4587 -3.3401 -52.5223 -0.0001 -14.3630 -0.0000 -63.9747 -17.9891 -21.9054 -0.0000 -0.0000 -0.0000 -0.0000 -0.0000 -0.0000 8.5508 -28.8520 -3.0120 -91.8594 -23.9388 15.7045 -0.0001 13.4074 0.0000 -54.0305 10.2026 -2.8667 0.0000 0.0000 -0.0000 0.0000 0.0000 -0.0000
 -10.4990 32.5994 -13.0010 18.0047 41.8298 -11.6222 11.6492 23.0469 -3.4956 14.8710 0.0000 -0.0000 27.8885 15.0558 -4.9677 -24.1420 -0.0000 0.0000 -17.6033 -10.6797 8.8817 16.9523 0.0000 0.0000 -15.7231 -29.5857 17.4959 22.1558 0.0000 -0.0000 -8.2208 -2.3113 -9.0655 2.1762 -11.4008 10.5915 -23.3569 18.1711 4.3801 -43.6077 -51.4989 -42.5274 -4.0538 13.2009 19.6038 -114.4643 -3.3477 -52.4668 -0.0001 -14.3269 -0.0000 -63.9178 -17.8920 -21.9389 0.0000 0.0000 0.0000 0.0000 0.0000 0.0000 8.5131 -28.8932 -3.0600 -91.9450 -23.8390 15.5699 -0.0000 13.3246 0.0000 -53.9844 10.1618 -2.8195 0.0000 -0.0000 0.0000 0.0000 -0.0000 0.0000
 -10.4207 32.6125 -12.9106 18.1332 41.9065 -11.7212 11.6830 23.2788 -3.4919 14.7135 -0.0000 0.0000 28.7637 15.2230 -5.1001 -24.5661 0.0000 -0.0000 -17.6709 -10.8644 8.7537 17.4598 -0.0000 0.0000 -15.5731 -29.2120 17.8210 21.8786 0.0000 0.0000 -8.2249 -2.3240 -9.0633 2.1421 -11.4146 10.6453 -23.3835 18.1410 4.4029 -43.6910 -51.4562 -42.6349 -4.0897 13.1917 19.6146 -114.4682 -3.3544 -52.4242 -0.0001 -14.2760 -0.0000 -63.8737 -17.8688 -21.9273 -0.0000 0.0000 0.0000 -0.0000 0.0000 0.0000 8.4673 -28.9350 -3.1152 -92.0236 -23.7390 15.4339 -0.0000 13.2501 0.0000 -53.9365 10.1130 -2.8078 -0.0000 0.0000 -0.0000 -0.0000 0.0000 -0.0000
 -10.3386 32.6310 -12.8166 18.2599 41.9788 -11.8158 11.7272 23.4991 -3.4840 14.4979 0.0000 -0.0000 29.8557 15.4413 -4.9403 -25.1099 -0.0000 -0.0000 -17.7126 -10.9890 8.6166 17.9143 -0.0000 0.0000 -15.3276 -28.8167 18.2170 21.5850 -0.0000 0.0000 -8.2326 -2.3366 -9.0623 2.0993 -11.4292 10.7001 -23.4050 18.1085 4.4226 -43.7566 -51.4073 -42.7347 -4.1330 13.1868 19.6193 -114.4712 -3.3567 -52.3902 -0.0001 -14.2076 -0.0000 -63.8795 -17.8266 -21.9456 -0.0000 -0.0000 0.0000 -0.0000 -0.0000 0.0000 8.4212 -28.9805 -3.1732 -92.0868 -23.6362 15.3075 -0.0000 13.1912 0.0000 -53.9359 10.0735 -2.7954 -0.0000 -0.0000 -0.0000 -0.0000 -0.0000 -0.0000
